<?xml version="1.0" encoding="UTF-8" standalone="no"?><!-- Created with Inkscape (http://www.inkscape.org/) -->

<svg xmlns:cc="http://creativecommons.org/ns#" xmlns:dc="http://purl.org/dc/elements/1.1/"
    xmlns:inkscape="http://www.inkscape.org/namespaces/inkscape"
    xmlns:rdf="http://www.w3.org/1999/02/22-rdf-syntax-ns#"
    xmlns:sodipodi="http://sodipodi.sourceforge.net/DTD/sodipodi-0.dtd" height="400mm" id="svg8"
    version="1.1" viewBox="0 0 400 400" width="400mm" xmlns="http://www.w3.org/2000/svg"
    inkscape:export-filename="/home/jan-andrej/Dokumente/Apps/Evervent/assets/images/icon.png"
    inkscape:export-xdpi="96.761902" inkscape:export-ydpi="96.761902" sodipodi:docname="icon.svg">
    <defs id="defs2" />
    <sodipodi:namedview bordercolor="#666666" borderopacity="1.0" id="base" pagecolor="#ffffff"
        showgrid="false" inkscape:current-layer="layer1" inkscape:cx="1382.6598"
        inkscape:cy="426.03" inkscape:document-units="mm" inkscape:pageopacity="0.0"
        inkscape:pageshadow="2" inkscape:snap-nodes="true" inkscape:window-height="700"
        inkscape:window-maximized="1" inkscape:window-width="1366" inkscape:window-x="0"
        inkscape:window-y="0" inkscape:zoom="0.32" />
    <metadata id="metadata5">
        <rdf:RDF>
            <cc:Work rdf:about="">
                <dc:format>image/svg+xml</dc:format>
                <dc:type rdf:resource="http://purl.org/dc/dcmitype/StillImage" />
                <dc:title />
            </cc:Work>
        </rdf:RDF>
    </metadata>
    <g id="layer1" transform="translate(0,103)" inkscape:groupmode="layer" inkscape:label="Ebene 1">
        <path style="opacity:1;stroke:#000000;stroke-width:0.26458332;stroke-opacity:1"
            d="m 126.21196,-26.515258 c 1.60904,0.917797 3.15708,1.95195 4.82712,2.753392 7.28145,3.494307 14.20283,6.017802 21.99908,8.350911 10.60852,3.174714 18.28222,4.89494 29.32979,6.2408796 4.96622,0.605042 9.97563,0.777502 14.96345,1.166255 15.68516,0.325556 31.45835,-0.762924 46.80072,-4.1574666 5.98956,-1.325205 17.95644,-5.88624 23.57367,-7.63368 3.96886,-0.799489 7.45012,-3.811895 11.59389,-3.952822 0.69394,-0.0236 1.50883,-0.0326 2.04177,0.412459 1.66609,1.391348 1.40657,4.435387 1.54416,6.1317 -0.26813,8.9345496 -11.15435,21.6013456 -11.99579,30.493259 -0.56577,5.978819 -1.07274,11.963059 -1.61356,17.944187 -1.60023,18.05238 -3.28067,36.09575 -4.55829,54.17476 -0.62456,10.39343 -1.67029,20.737414 -3.41938,31.001124 -1.75493,10.64423 -3.89492,21.21562 -5.96063,31.80185 -1.07468,5.95654 -2.17236,11.9122 -3.14758,17.88618 -0.57038,3.49402 -0.89283,7.03098 -1.60563,10.49875 -0.33351,1.62253 -0.8258,3.20833 -1.23869,4.8125 -1.73929,5.31977 -3.86857,10.69786 -7.29532,15.1932 -2.35368,3.08765 -3.05411,3.37996 -6.08985,5.94171 -9.51394,6.68742 -20.01588,11.99949 -31.31336,14.86101 -4.88559,1.23745 -10.22778,1.96022 -15.19533,2.74158 -2.57531,0.12158 -5.15093,0.49308 -7.72591,0.36479 -8.2619,-0.4117 -16.64833,-3.19622 -23.71687,-7.45538 -4.96059,-2.98902 -7.69927,-5.83205 -11.89628,-9.65189 -5.1731,-5.01447 -9.32983,-11.0311 -11.57682,-17.92123 -1.13442,-3.47854 -1.3426,-5.6197 -1.92839,-9.21021 -0.55053,-4.56191 -0.62687,-9.17077 0.17987,-13.71127 0.83085,-4.67624 2.39584,-9.15981 4.03584,-13.59618 2.24731,-5.36306 4.79818,-10.59244 7.45153,-15.76428 l 9.58778,-4.31159 v 0 c -2.81933,5.179 -5.56312,10.41314 -7.89149,15.83444 -0.54638,1.33884 -1.14554,2.65733 -1.63913,4.01652 -2.67171,7.35707 -3.86219,15.05455 -2.90202,22.85974 0.58249,3.73094 0.708,5.40984 1.81976,9.03346 2.08311,6.78962 5.93672,12.72324 10.7383,17.90951 4.3389,4.19087 6.15249,6.38731 11.48202,9.59501 7.10888,4.27863 15.29483,6.73164 23.58538,6.98934 2.55889,0.0796 5.11179,-0.29422 7.66769,-0.44135 6.26272,-1.01177 9.10632,-1.30813 15.27194,-2.96836 2.2603,-0.60865 4.48833,-1.33932 6.69215,-2.12836 2.23079,-0.7987 4.26415,-2.25351 6.60322,-2.63187 1.13234,-0.18314 -3.8205,2.51788 -2.78955,2.01502 1.47493,-0.71943 2.75685,-1.78097 4.13528,-2.67142 1.12675,-0.90361 2.32234,-1.72752 3.38025,-2.71082 5.13451,-4.77239 8.07631,-11.45041 10.39471,-17.91486 0.42565,-1.57955 0.90685,-3.14517 1.27695,-4.73866 2.18282,-9.3983 2.98759,-19.07265 4.97787,-28.50926 1.94163,-10.55917 4.01338,-21.09545 5.77598,-31.68635 1.66394,-10.39044 2.76876,-20.852804 4.14838,-31.283594 1.99979,-18.09275 3.29441,-36.24101 4.95877,-54.36561 2.36303,-32.3581394 -0.90468,12.72228 1.22889,-17.758412 0.60499,-8.6430464 11.43574,-21.0800994 10.97898,-29.757773 -0.0701,-0.479047 -0.20089,-3.965382 -1.26326,-4.717254 -0.88968,-0.629647 -3.45749,0.08234 -4.06137,0.262396 -2.79667,0.833866 -15.22938,6.025505 -18.08943,6.676031 -5.31552,1.4776476 -7.50709,2.1891326 -13.15804,3.2798966 -14.97634,2.890787 -30.3234,3.351088 -45.53196,2.974266 -4.96276,-0.428837 -9.94469,-0.675167 -14.88829,-1.286508 -12.25479,-1.515464 -17.9842,-2.869663 -29.82667,-6.0201326 -5.73282,-1.525111 -17.87445,-5.115796 -23.93977,-7.189819 -1.93914,-0.663083 -3.8192,-1.487773 -5.72879,-2.23166 z"
            id="path5077" inkscape:connector-curvature="0"
            inkscape:export-filename="/home/jan-andrej/Dokumente/Apps/Evervent/assets/images/icon.png"
            inkscape:export-xdpi="41.076992" inkscape:export-ydpi="41.076992"
            sodipodi:nodetypes="cssscscsccsccccsscsccccccscscccccscscccccccccscsccccsccccscssscc" />
        <path style="opacity:1;stroke:#000000;stroke-width:0.26458332;stroke-opacity:1"
            d="m 167.75075,88.845476 c 3.65522,4.91159 7.64544,9.57846 11.00505,14.710954 0.97568,1.49056 1.84832,3.04608 2.77249,4.56912 2.97366,4.90514 5.39075,10.10911 7.52018,15.42602 0,0 -9.42696,5.19952 -9.42696,5.19952 v 0 c -1.54774,-5.48303 -3.6985,-10.76833 -6.56186,-15.70703 -0.92345,-1.49478 -1.78721,-3.02813 -2.77035,-4.48434 -3.47062,-5.14061 -7.73702,-9.612424 -12.02183,-14.063884 0,0 9.48328,-5.65036 9.48328,-5.65036 z"
            id="path5079" inkscape:connector-curvature="0"
            inkscape:export-filename="/home/jan-andrej/Dokumente/Apps/Evervent/assets/images/icon.png"
            inkscape:export-xdpi="41.076992" inkscape:export-ydpi="41.076992" />
        <path style="opacity:1;stroke:#000000;stroke-width:0.26458332;stroke-opacity:1"
            d="m 212.96103,126.71306 c 1.52562,-7.12419 4.25521,-14.02276 8.17451,-20.181 0.89746,-1.41015 1.93113,-2.72884 2.89669,-4.09327 3.58463,-4.423117 1.78392,-2.35262 5.37241,-6.237197 0,0 9.42338,-3.92809 9.42338,-3.92809 v 0 c -3.83368,3.87876 -1.91585,1.80937 -5.72417,6.23521 -0.97808,1.33411 -2.02454,2.620687 -2.93424,4.002327 -3.8236,5.80717 -6.67039,12.4232 -7.42273,19.36821 0,0 -9.78585,4.83381 -9.78585,4.83381 z"
            id="path5081" inkscape:connector-curvature="0"
            inkscape:export-filename="/home/jan-andrej/Dokumente/Apps/Evervent/assets/images/icon.png"
            inkscape:export-xdpi="41.076992" inkscape:export-ydpi="41.076992" />
    </g>
</svg>
